<svg width="30" height="30" viewBox="0 0 30 30" fill="none" xmlns="http://www.w3.org/2000/svg">
<rect width="30" height="30" rx="15" fill="#5138F6"/>
<g clip-path="url(#clip0_11659_9568)">
<path d="M19.0208 18.0779L21.8762 20.9326L20.9328 21.8759L18.0782 19.0206C17.016 19.8721 15.6948 20.3352 14.3335 20.3333C11.0215 20.3333 8.3335 17.6453 8.3335 14.3333C8.3335 11.0213 11.0215 8.33325 14.3335 8.33325C17.6455 8.33325 20.3335 11.0213 20.3335 14.3333C20.3354 15.6946 19.8723 17.0157 19.0208 18.0779ZM17.6835 17.5833C18.5296 16.7132 19.0021 15.5469 19.0002 14.3333C19.0002 11.7546 16.9115 9.66659 14.3335 9.66659C11.7548 9.66659 9.66683 11.7546 9.66683 14.3333C9.66683 16.9113 11.7548 18.9999 14.3335 18.9999C15.5471 19.0018 16.7134 18.5293 17.5835 17.6833L17.6835 17.5833Z" fill="white"/>
</g>
<defs>
<clipPath id="clip0_11659_9568">
<rect width="16" height="16" fill="white" transform="translate(7 7)"/>
</clipPath>
</defs>
</svg>
