<svg width="18" height="18" viewBox="0 0 18 18" fill="none" xmlns="http://www.w3.org/2000/svg">
<g clip-path="url(#clip0_11659_9524)">
<path d="M9.75 15.75V17.25H8.25V15.75H2.25C2.05109 15.75 1.86032 15.671 1.71967 15.5303C1.57902 15.3897 1.5 15.1989 1.5 15V4.5H16.5V15C16.5 15.1989 16.421 15.3897 16.2803 15.5303C16.1397 15.671 15.9489 15.75 15.75 15.75H9.75ZM3 14.25H15V6H3V14.25ZM9.75 7.5H13.5V9H9.75V7.5ZM9.75 10.5H13.5V12H9.75V10.5ZM6.75 7.5V9.75H9C9 10.195 8.86804 10.63 8.62081 11C8.37357 11.37 8.02217 11.6584 7.61104 11.8287C7.1999 11.999 6.7475 12.0436 6.31105 11.9568C5.87459 11.87 5.47368 11.6557 5.15901 11.341C4.84434 11.0263 4.63005 10.6254 4.54323 10.189C4.45642 9.7525 4.50097 9.3001 4.67127 8.88896C4.84157 8.47783 5.12996 8.12643 5.49997 7.87919C5.86998 7.63196 6.30499 7.5 6.75 7.5ZM1.5 2.25H16.5V3.75H1.5V2.25Z" fill="#22005D"/>
</g>
<defs>
<clipPath id="clip0_11659_9524">
<rect width="18" height="18" fill="white"/>
</clipPath>
</defs>
</svg>
