<svg width="18" height="18" viewBox="0 0 18 18" fill="none" xmlns="http://www.w3.org/2000/svg">
<path d="M16.3638 7.02314L15.0933 2.57638C15.0381 2.38319 14.8615 2.25 14.6606 2.25H11.625L11.9815 6.52783C11.9932 6.66782 12.0692 6.79428 12.1899 6.86621C12.4819 7.04024 13.0539 7.36274 13.5 7.5C14.2618 7.73441 15.3756 7.64986 16.0099 7.57186C16.2736 7.53942 16.4368 7.27867 16.3638 7.02314Z" stroke="white" stroke-width="1.125"/>
<path d="M10.5 7.5C10.9256 7.36904 11.4659 7.06942 11.7682 6.89105C11.9121 6.80614 11.9913 6.64577 11.9774 6.47928L11.625 2.25H6.375L6.02256 6.47928C6.00869 6.64577 6.08792 6.80614 6.2318 6.89105C6.53405 7.06942 7.07437 7.36904 7.5 7.5C8.61976 7.84454 9.38024 7.84454 10.5 7.5Z" stroke="white" stroke-width="1.125"/>
<path d="M2.90675 2.57638L1.63625 7.02314C1.56324 7.27867 1.72635 7.53942 1.99013 7.57186C2.62437 7.64986 3.73818 7.73441 4.5 7.5C4.94608 7.36274 5.51813 7.04024 5.81008 6.86621C5.93075 6.79428 6.00685 6.66782 6.01851 6.52783L6.375 2.25H3.33944C3.13852 2.25 2.96195 2.38319 2.90675 2.57638Z" stroke="white" stroke-width="1.125"/>
<path d="M2.25 7.5V14.25C2.25 15.0784 2.92157 15.75 3.75 15.75H14.25C15.0784 15.75 15.75 15.0784 15.75 14.25V7.5" stroke="white" stroke-width="1.125"/>
</svg>
